<mxfile host="65bd71144e" modified="2021-01-14T08:30:26.864Z" agent="5.0 (Macintosh; Intel Mac OS X 11_0_0) AppleWebKit/537.36 (KHTML, like Gecko) Code/1.52.1 Chrome/83.0.4103.122 Electron/9.3.5 Safari/537.36" etag="r3g4um24_F7WTFTdwtT2" version="13.10.0" type="embed" pages="4">
    <diagram id="2rUZ2z_cpMbh67YxnHrP" name="compliancy">
        <mxGraphModel dx="862" dy="807" grid="1" gridSize="10" guides="1" tooltips="1" connect="1" arrows="1" fold="1" page="1" pageScale="1" pageWidth="850" pageHeight="1100" math="0" shadow="0">
            <root>
                <mxCell id="0"/>
                <mxCell id="1" parent="0"/>
                <mxCell id="mM9peMXAxiWrn_j_5kJs-41" value="" style="rounded=0;whiteSpace=wrap;html=1;strokeWidth=1;dashed=1;" parent="1" vertex="1">
                    <mxGeometry x="130" y="20" width="180" height="100" as="geometry"/>
                </mxCell>
                <mxCell id="mM9peMXAxiWrn_j_5kJs-42" value="" style="edgeStyle=orthogonalEdgeStyle;rounded=0;orthogonalLoop=1;jettySize=auto;html=1;" parent="1" source="mM9peMXAxiWrn_j_5kJs-21" target="mM9peMXAxiWrn_j_5kJs-38" edge="1">
                    <mxGeometry relative="1" as="geometry"/>
                </mxCell>
                <mxCell id="mM9peMXAxiWrn_j_5kJs-21" value="" style="shape=actor;whiteSpace=wrap;html=1;rounded=0;strokeWidth=1;" parent="1" vertex="1">
                    <mxGeometry x="40" y="40" width="40" height="60" as="geometry"/>
                </mxCell>
                <mxCell id="mM9peMXAxiWrn_j_5kJs-44" value="" style="edgeStyle=orthogonalEdgeStyle;rounded=0;orthogonalLoop=1;jettySize=auto;html=1;entryX=0.55;entryY=0;entryDx=0;entryDy=0;entryPerimeter=0;" parent="1" source="mM9peMXAxiWrn_j_5kJs-23" target="mM9peMXAxiWrn_j_5kJs-25" edge="1">
                    <mxGeometry relative="1" as="geometry"/>
                </mxCell>
                <mxCell id="mM9peMXAxiWrn_j_5kJs-32" value="" style="edgeStyle=orthogonalEdgeStyle;rounded=0;orthogonalLoop=1;jettySize=auto;html=1;" parent="1" source="mM9peMXAxiWrn_j_5kJs-25" edge="1">
                    <mxGeometry relative="1" as="geometry">
                        <mxPoint x="360" y="270" as="targetPoint"/>
                    </mxGeometry>
                </mxCell>
                <mxCell id="mM9peMXAxiWrn_j_5kJs-25" value="compliancy approvals" style="whiteSpace=wrap;html=1;aspect=fixed;rounded=0;strokeWidth=3;fontStyle=1;" parent="1" vertex="1">
                    <mxGeometry x="150" y="190" width="160" height="160" as="geometry"/>
                </mxCell>
                <mxCell id="mM9peMXAxiWrn_j_5kJs-27" value="HTTP" style="text;html=1;strokeColor=none;fillColor=none;align=center;verticalAlign=middle;whiteSpace=wrap;rounded=0;" parent="1" vertex="1">
                    <mxGeometry x="240" y="160" width="40" height="20" as="geometry"/>
                </mxCell>
                <mxCell id="mM9peMXAxiWrn_j_5kJs-29" value="Azure DevOps&lt;br&gt;API" style="ellipse;shape=cloud;whiteSpace=wrap;html=1;rounded=0;strokeWidth=1;" parent="1" vertex="1">
                    <mxGeometry x="364" y="230" width="120" height="80" as="geometry"/>
                </mxCell>
                <mxCell id="mM9peMXAxiWrn_j_5kJs-36" value="User" style="text;html=1;strokeColor=none;fillColor=none;align=center;verticalAlign=middle;whiteSpace=wrap;rounded=0;" parent="1" vertex="1">
                    <mxGeometry x="40" y="100" width="40" height="20" as="geometry"/>
                </mxCell>
                <mxCell id="mM9peMXAxiWrn_j_5kJs-37" value="HTTP" style="text;html=1;strokeColor=none;fillColor=none;align=center;verticalAlign=middle;whiteSpace=wrap;rounded=0;" parent="1" vertex="1">
                    <mxGeometry x="324" y="240" width="40" height="20" as="geometry"/>
                </mxCell>
                <mxCell id="mM9peMXAxiWrn_j_5kJs-38" value="" style="aspect=fixed;pointerEvents=1;shadow=0;dashed=0;html=1;strokeColor=none;labelPosition=center;verticalLabelPosition=bottom;verticalAlign=top;align=center;shape=mxgraph.azure.startup_task;rounded=0;" parent="1" vertex="1">
                    <mxGeometry x="150" y="45" width="48" height="50" as="geometry"/>
                </mxCell>
                <mxCell id="mM9peMXAxiWrn_j_5kJs-60" value="Classic&lt;br&gt;Pipeline" style="text;html=1;strokeColor=none;fillColor=none;align=center;verticalAlign=middle;whiteSpace=wrap;rounded=0;dashed=1;" parent="1" vertex="1">
                    <mxGeometry x="80" y="32" width="40" height="35" as="geometry"/>
                </mxCell>
                <mxCell id="mM9peMXAxiWrn_j_5kJs-63" value="validateClassicRelease" style="text;html=1;align=center;verticalAlign=middle;resizable=0;points=[];autosize=1;" parent="1" vertex="1">
                    <mxGeometry x="250" y="130" width="140" height="20" as="geometry"/>
                </mxCell>
                <mxCell id="3" value="Production stage" style="text;html=1;strokeColor=none;fillColor=none;align=center;verticalAlign=middle;whiteSpace=wrap;rounded=0;" parent="1" vertex="1">
                    <mxGeometry x="198" y="95" width="103" height="20" as="geometry"/>
                </mxCell>
                <mxCell id="mM9peMXAxiWrn_j_5kJs-23" value="" style="aspect=fixed;pointerEvents=1;shadow=0;dashed=0;html=1;strokeColor=none;labelPosition=center;verticalLabelPosition=bottom;verticalAlign=top;align=center;shape=mxgraph.azure.startup_task;rounded=0;" parent="1" vertex="1">
                    <mxGeometry x="214" y="45" width="48" height="50" as="geometry"/>
                </mxCell>
            </root>
        </mxGraphModel>
    </diagram>
    <diagram name="hooks" id="dv_ZvV6JMlQWwNKFxyX4">
        &#xa;
        <mxGraphModel dx="1132" dy="672" grid="1" gridSize="10" guides="1" tooltips="1" connect="1" arrows="1" fold="1" page="1" pageScale="1" pageWidth="850" pageHeight="1100" math="0" shadow="0">
            &#xa;            &#xa;&#xa;
            <root>
                &#xa;                &#xa;&#xa;
                <mxCell id="dQZulvzeQqhADhMms8IM-0"/>
                &#xa;                &#xa;&#xa;
                <mxCell id="dQZulvzeQqhADhMms8IM-1" parent="dQZulvzeQqhADhMms8IM-0"/>
                &#xa;                &#xa;&#xa;
                <mxCell id="dQZulvzeQqhADhMms8IM-2" value="Azure DevOps &lt;br&gt;extension" style="rounded=1;whiteSpace=wrap;html=1;align=right;fillColor=#E6E6E6;strokeColor=#808080;fontColor=#333333;" vertex="1" parent="dQZulvzeQqhADhMms8IM-1">
                    &#xa;                    &#xa;&#xa;
                    <mxGeometry x="880" y="430" width="320" height="160" as="geometry"/>
                    &#xa;                    &#xa;&#xa;
                </mxCell>
                &#xa;                &#xa;&#xa;
                <mxCell id="dQZulvzeQqhADhMms8IM-3" value="Azure DevOps" style="rounded=1;whiteSpace=wrap;html=1;align=right;fillColor=#f5f5f5;strokeColor=#808080;fontColor=#333333;" vertex="1" parent="dQZulvzeQqhADhMms8IM-1">
                    &#xa;                    &#xa;&#xa;
                    <mxGeometry x="880" y="190" width="320" height="300" as="geometry"/>
                    &#xa;                    &#xa;&#xa;
                </mxCell>
                &#xa;                &#xa;&#xa;
                <mxCell id="dQZulvzeQqhADhMms8IM-4" value="Azure" style="rounded=1;whiteSpace=wrap;html=1;align=left;fillColor=#f5f5f5;strokeColor=#808080;fontColor=#333333;" vertex="1" parent="dQZulvzeQqhADhMms8IM-1">
                    &#xa;                    &#xa;&#xa;
                    <mxGeometry x="220" y="180" width="350" height="360" as="geometry"/>
                    &#xa;                    &#xa;&#xa;
                </mxCell>
                &#xa;                &#xa;&#xa;
                <mxCell id="dQZulvzeQqhADhMms8IM-6" value="" style="edgeStyle=orthogonalEdgeStyle;rounded=0;orthogonalLoop=1;jettySize=auto;html=1;entryX=0;entryY=0.5;entryDx=0;entryDy=0;" edge="1" parent="dQZulvzeQqhADhMms8IM-1" source="dQZulvzeQqhADhMms8IM-10" target="dQZulvzeQqhADhMms8IM-20">
                    &#xa;                    &#xa;&#xa;
                    <mxGeometry relative="1" as="geometry"/>
                    &#xa;                    &#xa;&#xa;
                </mxCell>
                &#xa;                &#xa;&#xa;
                <mxCell id="dQZulvzeQqhADhMms8IM-7" value="VstsRestClient" style="text;html=1;resizable=0;points=[];align=center;verticalAlign=middle;labelBackgroundColor=#ffffff;" vertex="1" connectable="0" parent="dQZulvzeQqhADhMms8IM-6">
                    &#xa;                    &#xa;&#xa;
                    <mxGeometry x="0.3228" y="-2" relative="1" as="geometry">
                        &#xa;                        &#xa;&#xa;
                        <mxPoint x="-2" y="8" as="offset"/>
                        &#xa;                        &#xa;&#xa;
                    </mxGeometry>
                    &#xa;                    &#xa;&#xa;
                </mxCell>
                &#xa;                &#xa;&#xa;
                <mxCell id="dQZulvzeQqhADhMms8IM-10" value="Create &amp;amp; Delete&lt;br&gt;Hooks Functions" style="rounded=0;whiteSpace=wrap;html=1;strokeWidth=5;" vertex="1" parent="dQZulvzeQqhADhMms8IM-1">
                    &#xa;                    &#xa;&#xa;
                    <mxGeometry x="320" y="300" width="120" height="60" as="geometry"/>
                    &#xa;                    &#xa;&#xa;
                </mxCell>
                &#xa;                &#xa;&#xa;
                <mxCell id="dQZulvzeQqhADhMms8IM-14" value="Azure DevOps&lt;br&gt;Extension Management Data Storage" style="rounded=0;whiteSpace=wrap;html=1;" vertex="1" parent="dQZulvzeQqhADhMms8IM-1">
                    &#xa;                    &#xa;&#xa;
                    <mxGeometry x="920" y="390" width="120" height="60" as="geometry"/>
                    &#xa;                    &#xa;&#xa;
                </mxCell>
                &#xa;                &#xa;&#xa;
                <mxCell id="dQZulvzeQqhADhMms8IM-38" style="edgeStyle=orthogonalEdgeStyle;rounded=0;orthogonalLoop=1;jettySize=auto;html=1;exitX=0.5;exitY=0;exitDx=0;exitDy=0;" edge="1" parent="dQZulvzeQqhADhMms8IM-1" source="dQZulvzeQqhADhMms8IM-20" target="dQZulvzeQqhADhMms8IM-28">
                    &#xa;                    &#xa;&#xa;
                    <mxGeometry relative="1" as="geometry"/>
                    &#xa;                    &#xa;&#xa;
                </mxCell>
                &#xa;                &#xa;&#xa;
                <mxCell id="dQZulvzeQqhADhMms8IM-20" value="Azure DevOps&lt;br&gt;REST API" style="rounded=0;whiteSpace=wrap;html=1;" vertex="1" parent="dQZulvzeQqhADhMms8IM-1">
                    &#xa;                    &#xa;&#xa;
                    <mxGeometry x="920" y="300" width="120" height="60" as="geometry"/>
                    &#xa;                    &#xa;&#xa;
                </mxCell>
                &#xa;                &#xa;&#xa;
                <mxCell id="dQZulvzeQqhADhMms8IM-26" value="" style="edgeStyle=orthogonalEdgeStyle;rounded=0;orthogonalLoop=1;jettySize=auto;html=1;" edge="1" parent="dQZulvzeQqhADhMms8IM-1" source="dQZulvzeQqhADhMms8IM-28" target="dQZulvzeQqhADhMms8IM-30">
                    &#xa;                    &#xa;&#xa;
                    <mxGeometry relative="1" as="geometry"/>
                    &#xa;                    &#xa;&#xa;
                </mxCell>
                &#xa;                &#xa;&#xa;
                <mxCell id="dQZulvzeQqhADhMms8IM-27" value="build &amp;amp; release completed events" style="text;html=1;resizable=0;points=[];align=center;verticalAlign=middle;labelBackgroundColor=#ffffff;" vertex="1" connectable="0" parent="dQZulvzeQqhADhMms8IM-26">
                    &#xa;                    &#xa;&#xa;
                    <mxGeometry x="-0.0214" y="1" relative="1" as="geometry">
                        &#xa;                        &#xa;&#xa;
                        <mxPoint x="1" y="9" as="offset"/>
                        &#xa;                        &#xa;&#xa;
                    </mxGeometry>
                    &#xa;                    &#xa;&#xa;
                </mxCell>
                &#xa;                &#xa;&#xa;
                <mxCell id="dQZulvzeQqhADhMms8IM-28" value="Azure DevOps&lt;br&gt;Service Hooks" style="rounded=0;whiteSpace=wrap;html=1;" vertex="1" parent="dQZulvzeQqhADhMms8IM-1">
                    &#xa;                    &#xa;&#xa;
                    <mxGeometry x="920" y="210" width="120" height="60" as="geometry"/>
                    &#xa;                    &#xa;&#xa;
                </mxCell>
                &#xa;                &#xa;&#xa;
                <mxCell id="dQZulvzeQqhADhMms8IM-29" style="edgeStyle=orthogonalEdgeStyle;rounded=0;orthogonalLoop=1;jettySize=auto;html=1;entryX=0.5;entryY=0;entryDx=0;entryDy=0;exitX=0;exitY=0.5;exitDx=0;exitDy=0;" edge="1" parent="dQZulvzeQqhADhMms8IM-1" source="dQZulvzeQqhADhMms8IM-30" target="dQZulvzeQqhADhMms8IM-10">
                    &#xa;                    &#xa;&#xa;
                    <mxGeometry relative="1" as="geometry"/>
                    &#xa;                    &#xa;&#xa;
                </mxCell>
                &#xa;                &#xa;&#xa;
                <mxCell id="dQZulvzeQqhADhMms8IM-30" value="Storage queue" style="rounded=0;whiteSpace=wrap;html=1;" vertex="1" parent="dQZulvzeQqhADhMms8IM-1">
                    &#xa;                    &#xa;&#xa;
                    <mxGeometry x="430" y="210" width="120" height="60" as="geometry"/>
                    &#xa;                    &#xa;&#xa;
                </mxCell>
                &#xa;                &#xa;&#xa;
                <mxCell id="rMl-RP5grhkWgzoDlrxp-0" value="Azure DevOps&lt;br&gt;Compliancy&lt;br&gt;Frontend" style="rounded=0;whiteSpace=wrap;html=1;" vertex="1" parent="dQZulvzeQqhADhMms8IM-1">
                    &#xa;                    &#xa;&#xa;
                    <mxGeometry x="920" y="510" width="120" height="60" as="geometry"/>
                    &#xa;                    &#xa;&#xa;
                </mxCell>
                &#xa;                &#xa;&#xa;
            </root>
            &#xa;            &#xa;&#xa;
        </mxGraphModel>
        &#xa;
    </diagram>
    <diagram name="completeness" id="uVb3EqGYo8kxW31qxcvx">
        &#xa;
        <mxGraphModel dx="1132" dy="672" grid="1" gridSize="10" guides="1" tooltips="1" connect="1" arrows="1" fold="1" page="1" pageScale="1" pageWidth="850" pageHeight="1100" math="0" shadow="0">
            &#xa;            &#xa;&#xa;
            <root>
                &#xa;                &#xa;&#xa;
                <mxCell id="MQ6FGGwSsxCammQS5fSB-0"/>
                &#xa;                &#xa;&#xa;
                <mxCell id="MQ6FGGwSsxCammQS5fSB-1" parent="MQ6FGGwSsxCammQS5fSB-0"/>
                &#xa;                &#xa;&#xa;
                <mxCell id="MQ6FGGwSsxCammQS5fSB-2" value="Azure DevOps &lt;br&gt;extension" style="rounded=1;whiteSpace=wrap;html=1;align=right;fillColor=#E6E6E6;strokeColor=#808080;fontColor=#333333;" vertex="1" parent="MQ6FGGwSsxCammQS5fSB-1">
                    &#xa;                    &#xa;&#xa;
                    <mxGeometry x="880" y="430" width="320" height="160" as="geometry"/>
                    &#xa;                    &#xa;&#xa;
                </mxCell>
                &#xa;                &#xa;&#xa;
                <mxCell id="MQ6FGGwSsxCammQS5fSB-3" value="Azure DevOps" style="rounded=1;whiteSpace=wrap;html=1;align=right;fillColor=#f5f5f5;strokeColor=#808080;fontColor=#333333;" vertex="1" parent="MQ6FGGwSsxCammQS5fSB-1">
                    &#xa;                    &#xa;&#xa;
                    <mxGeometry x="880" y="190" width="320" height="300" as="geometry"/>
                    &#xa;                    &#xa;&#xa;
                </mxCell>
                &#xa;                &#xa;&#xa;
                <mxCell id="MQ6FGGwSsxCammQS5fSB-4" value="Azure" style="rounded=1;whiteSpace=wrap;html=1;align=left;fillColor=#f5f5f5;strokeColor=#808080;fontColor=#333333;" vertex="1" parent="MQ6FGGwSsxCammQS5fSB-1">
                    &#xa;                    &#xa;&#xa;
                    <mxGeometry x="220" y="180" width="350" height="360" as="geometry"/>
                    &#xa;                    &#xa;&#xa;
                </mxCell>
                &#xa;                &#xa;&#xa;
                <mxCell id="MQ6FGGwSsxCammQS5fSB-8" value="" style="edgeStyle=orthogonalEdgeStyle;rounded=0;orthogonalLoop=1;jettySize=auto;html=1;" edge="1" parent="MQ6FGGwSsxCammQS5fSB-1" source="MQ6FGGwSsxCammQS5fSB-10" target="MQ6FGGwSsxCammQS5fSB-12">
                    &#xa;                    &#xa;&#xa;
                    <mxGeometry relative="1" as="geometry"/>
                    &#xa;                    &#xa;&#xa;
                </mxCell>
                &#xa;                &#xa;&#xa;
                <mxCell id="MQ6FGGwSsxCammQS5fSB-9" value="LogAnalyticsClient" style="text;html=1;resizable=0;points=[];align=center;verticalAlign=middle;labelBackgroundColor=none;" vertex="1" connectable="0" parent="MQ6FGGwSsxCammQS5fSB-8">
                    &#xa;                    &#xa;&#xa;
                    <mxGeometry x="0.225" y="3" relative="1" as="geometry">
                        &#xa;                        &#xa;&#xa;
                        <mxPoint x="-63" y="-9" as="offset"/>
                        &#xa;                        &#xa;&#xa;
                    </mxGeometry>
                    &#xa;                    &#xa;&#xa;
                </mxCell>
                &#xa;                &#xa;&#xa;
                <mxCell id="MQ6FGGwSsxCammQS5fSB-10" value="Completeness Functions" style="rounded=0;whiteSpace=wrap;html=1;strokeWidth=5;" vertex="1" parent="MQ6FGGwSsxCammQS5fSB-1">
                    &#xa;                    &#xa;&#xa;
                    <mxGeometry x="320" y="300" width="120" height="60" as="geometry"/>
                    &#xa;                    &#xa;&#xa;
                </mxCell>
                &#xa;                &#xa;&#xa;
                <mxCell id="MQ6FGGwSsxCammQS5fSB-12" value="LogAnalytics" style="rounded=0;whiteSpace=wrap;html=1;" vertex="1" parent="MQ6FGGwSsxCammQS5fSB-1">
                    &#xa;                    &#xa;&#xa;
                    <mxGeometry x="320" y="440" width="120" height="60" as="geometry"/>
                    &#xa;                    &#xa;&#xa;
                </mxCell>
                &#xa;                &#xa;&#xa;
                <mxCell id="MQ6FGGwSsxCammQS5fSB-14" value="Azure DevOps&lt;br&gt;Extension Management Data Storage" style="rounded=0;whiteSpace=wrap;html=1;" vertex="1" parent="MQ6FGGwSsxCammQS5fSB-1">
                    &#xa;                    &#xa;&#xa;
                    <mxGeometry x="920" y="390" width="120" height="60" as="geometry"/>
                    &#xa;                    &#xa;&#xa;
                </mxCell>
                &#xa;                &#xa;&#xa;
                <mxCell id="MQ6FGGwSsxCammQS5fSB-20" value="Azure DevOps&lt;br&gt;REST API" style="rounded=0;whiteSpace=wrap;html=1;" vertex="1" parent="MQ6FGGwSsxCammQS5fSB-1">
                    &#xa;                    &#xa;&#xa;
                    <mxGeometry x="920" y="300" width="120" height="60" as="geometry"/>
                    &#xa;                    &#xa;&#xa;
                </mxCell>
                &#xa;                &#xa;&#xa;
                <mxCell id="MQ6FGGwSsxCammQS5fSB-25" value="Azure DevOps&lt;br&gt;Compliancy&lt;br&gt;Frontend" style="rounded=0;whiteSpace=wrap;html=1;" vertex="1" parent="MQ6FGGwSsxCammQS5fSB-1">
                    &#xa;                    &#xa;&#xa;
                    <mxGeometry x="920" y="510" width="120" height="60" as="geometry"/>
                    &#xa;                    &#xa;&#xa;
                </mxCell>
                &#xa;                &#xa;&#xa;
                <mxCell id="MQ6FGGwSsxCammQS5fSB-28" value="Azure DevOps&lt;br&gt;Service Hooks" style="rounded=0;whiteSpace=wrap;html=1;" vertex="1" parent="MQ6FGGwSsxCammQS5fSB-1">
                    &#xa;                    &#xa;&#xa;
                    <mxGeometry x="920" y="210" width="120" height="60" as="geometry"/>
                    &#xa;                    &#xa;&#xa;
                </mxCell>
                &#xa;                &#xa;&#xa;
                <mxCell id="Ng-c6cMRA_HLK9E7OqwL-0" style="edgeStyle=orthogonalEdgeStyle;rounded=0;orthogonalLoop=1;jettySize=auto;html=1;exitX=1;exitY=0.5;exitDx=0;exitDy=0;entryX=0.5;entryY=0;entryDx=0;entryDy=0;" edge="1" parent="MQ6FGGwSsxCammQS5fSB-1" source="MQ6FGGwSsxCammQS5fSB-10" target="MQ6FGGwSsxCammQS5fSB-10">
                    &#xa;                    &#xa;&#xa;
                    <mxGeometry relative="1" as="geometry">
                        &#xa;                        &#xa;&#xa;
                        <Array as="points">
                            &#xa;                            &#xa;&#xa;
                            <mxPoint x="460" y="330"/>
                            &#xa;                            &#xa;&#xa;
                            <mxPoint x="460" y="270"/>
                            &#xa;                            &#xa;&#xa;
                            <mxPoint x="380" y="270"/>
                            &#xa;                            &#xa;&#xa;
                        </Array>
                        &#xa;                        &#xa;&#xa;
                    </mxGeometry>
                    &#xa;                    &#xa;&#xa;
                </mxCell>
                &#xa;                &#xa;&#xa;
                <mxCell id="Ng-c6cMRA_HLK9E7OqwL-1" value="DurableOrchestrationClient" style="text;html=1;resizable=0;points=[];align=center;verticalAlign=middle;labelBackgroundColor=none;" vertex="1" connectable="0" parent="Ng-c6cMRA_HLK9E7OqwL-0">
                    &#xa;                    &#xa;&#xa;
                    <mxGeometry x="-0.1684" y="-2" relative="1" as="geometry">
                        &#xa;                        &#xa;&#xa;
                        <mxPoint x="-2" y="-11" as="offset"/>
                        &#xa;                        &#xa;&#xa;
                    </mxGeometry>
                    &#xa;                    &#xa;&#xa;
                </mxCell>
                &#xa;                &#xa;&#xa;
            </root>
            &#xa;            &#xa;&#xa;
        </mxGraphModel>
        &#xa;
    </diagram>
    <diagram name="sm9" id="sbar7I2ikVv-O5kukXF4">
        &#xa;
        <mxGraphModel dx="1106" dy="737" grid="1" gridSize="10" guides="1" tooltips="1" connect="1" arrows="1" fold="1" page="1" pageScale="1" pageWidth="850" pageHeight="1100" math="0" shadow="0">
            &#xa;
            <root>
                &#xa;
                <mxCell id="bDeUlTLZobzvm5jV-VvE-0"/>
                &#xa;
                <mxCell id="bDeUlTLZobzvm5jV-VvE-1" parent="bDeUlTLZobzvm5jV-VvE-0"/>
                &#xa;
                <mxCell id="bDeUlTLZobzvm5jV-VvE-38" value="Azure" style="rounded=1;whiteSpace=wrap;html=1;align=left;fillColor=#f5f5f5;strokeColor=#808080;fontColor=#333333;" parent="bDeUlTLZobzvm5jV-VvE-1" vertex="1">
                    &#xa;
                    <mxGeometry x="230" y="180" width="350" height="360" as="geometry"/>
                    &#xa;
                </mxCell>
                &#xa;
                <mxCell id="bDeUlTLZobzvm5jV-VvE-46" value="on-prem" style="rounded=1;whiteSpace=wrap;html=1;align=left;fillColor=#f5f5f5;strokeColor=#808080;fontColor=#333333;" parent="bDeUlTLZobzvm5jV-VvE-1" vertex="1">
                    &#xa;
                    <mxGeometry x="230" y="580" width="350" height="129" as="geometry"/>
                    &#xa;
                </mxCell>
                &#xa;
                <mxCell id="bDeUlTLZobzvm5jV-VvE-54" value="ASE" style="rounded=1;whiteSpace=wrap;html=1;labelBackgroundColor=none;align=left;" parent="bDeUlTLZobzvm5jV-VvE-1" vertex="1">
                    &#xa;
                    <mxGeometry x="285" y="230" width="245" height="230" as="geometry"/>
                    &#xa;
                </mxCell>
                &#xa;
                <mxCell id="bDeUlTLZobzvm5jV-VvE-2" value="Azure DevOps &lt;br&gt;extension" style="rounded=1;whiteSpace=wrap;html=1;align=right;fillColor=#E6E6E6;strokeColor=#808080;fontColor=#333333;" parent="bDeUlTLZobzvm5jV-VvE-1" vertex="1">
                    &#xa;
                    <mxGeometry x="1330" y="430" width="320" height="160" as="geometry"/>
                    &#xa;
                </mxCell>
                &#xa;
                <mxCell id="bDeUlTLZobzvm5jV-VvE-3" value="Azure DevOps" style="rounded=1;whiteSpace=wrap;html=1;align=right;fillColor=#f5f5f5;strokeColor=#808080;fontColor=#333333;" parent="bDeUlTLZobzvm5jV-VvE-1" vertex="1">
                    &#xa;
                    <mxGeometry x="1330" y="190" width="320" height="300" as="geometry"/>
                    &#xa;
                </mxCell>
                &#xa;
                <mxCell id="bDeUlTLZobzvm5jV-VvE-4" value="Azure" style="rounded=1;whiteSpace=wrap;html=1;align=left;fillColor=#f5f5f5;strokeColor=#808080;fontColor=#333333;" parent="bDeUlTLZobzvm5jV-VvE-1" vertex="1">
                    &#xa;
                    <mxGeometry x="670" y="180" width="350" height="360" as="geometry"/>
                    &#xa;
                </mxCell>
                &#xa;
                <mxCell id="bDeUlTLZobzvm5jV-VvE-5" value="" style="edgeStyle=orthogonalEdgeStyle;rounded=0;orthogonalLoop=1;jettySize=auto;html=1;" parent="bDeUlTLZobzvm5jV-VvE-1" source="bDeUlTLZobzvm5jV-VvE-10" target="bDeUlTLZobzvm5jV-VvE-17" edge="1">
                    &#xa;
                    <mxGeometry relative="1" as="geometry"/>
                    &#xa;
                </mxCell>
                &#xa;
                <mxCell id="bDeUlTLZobzvm5jV-VvE-6" value="" style="edgeStyle=orthogonalEdgeStyle;rounded=0;orthogonalLoop=1;jettySize=auto;html=1;entryX=0;entryY=0.5;entryDx=0;entryDy=0;" parent="bDeUlTLZobzvm5jV-VvE-1" source="bDeUlTLZobzvm5jV-VvE-10" target="bDeUlTLZobzvm5jV-VvE-14" edge="1">
                    &#xa;
                    <mxGeometry relative="1" as="geometry">
                        &#xa;
                        <Array as="points">
                            &#xa;
                            <mxPoint x="990" y="330"/>
                            &#xa;
                            <mxPoint x="990" y="420"/>
                            &#xa;
                        </Array>
                        &#xa;
                    </mxGeometry>
                    &#xa;
                </mxCell>
                &#xa;
                <mxCell id="bDeUlTLZobzvm5jV-VvE-7" value="VstsRestClient" style="text;html=1;resizable=0;points=[];align=center;verticalAlign=middle;labelBackgroundColor=#ffffff;" parent="bDeUlTLZobzvm5jV-VvE-6" vertex="1" connectable="0">
                    &#xa;
                    <mxGeometry x="0.3228" y="-2" relative="1" as="geometry">
                        &#xa;
                        <mxPoint x="-2" y="8" as="offset"/>
                        &#xa;
                    </mxGeometry>
                    &#xa;
                </mxCell>
                &#xa;
                <mxCell id="bDeUlTLZobzvm5jV-VvE-8" value="" style="edgeStyle=orthogonalEdgeStyle;rounded=0;orthogonalLoop=1;jettySize=auto;html=1;curved=1;" parent="bDeUlTLZobzvm5jV-VvE-1" source="bDeUlTLZobzvm5jV-VvE-10" target="bDeUlTLZobzvm5jV-VvE-12" edge="1">
                    &#xa;
                    <mxGeometry relative="1" as="geometry"/>
                    &#xa;
                </mxCell>
                &#xa;
                <mxCell id="bDeUlTLZobzvm5jV-VvE-10" value="Azure DevOps&lt;br&gt;Compliancy Functions" style="rounded=0;whiteSpace=wrap;html=1;strokeWidth=5;" parent="bDeUlTLZobzvm5jV-VvE-1" vertex="1">
                    &#xa;
                    <mxGeometry x="785" y="300" width="120" height="60" as="geometry"/>
                    &#xa;
                </mxCell>
                &#xa;
                <mxCell id="bDeUlTLZobzvm5jV-VvE-11" value="" style="edgeStyle=orthogonalEdgeStyle;rounded=0;orthogonalLoop=1;jettySize=auto;html=1;" parent="bDeUlTLZobzvm5jV-VvE-1" source="bDeUlTLZobzvm5jV-VvE-12" target="bDeUlTLZobzvm5jV-VvE-13" edge="1">
                    &#xa;
                    <mxGeometry relative="1" as="geometry"/>
                    &#xa;
                </mxCell>
                &#xa;
                <mxCell id="bDeUlTLZobzvm5jV-VvE-12" value="LogAnalytics" style="rounded=0;whiteSpace=wrap;html=1;" parent="bDeUlTLZobzvm5jV-VvE-1" vertex="1">
                    &#xa;
                    <mxGeometry x="860" y="440" width="120" height="60" as="geometry"/>
                    &#xa;
                </mxCell>
                &#xa;
                <mxCell id="BpuTOL6fEA9YrTHZpf_7-4" style="edgeStyle=orthogonalEdgeStyle;rounded=0;orthogonalLoop=1;jettySize=auto;html=1;entryX=0;entryY=0.5;entryDx=0;entryDy=0;" edge="1" parent="bDeUlTLZobzvm5jV-VvE-1" source="bDeUlTLZobzvm5jV-VvE-49" target="bDeUlTLZobzvm5jV-VvE-10">
                    &#xa;
                    <mxGeometry relative="1" as="geometry"/>
                    &#xa;
                </mxCell>
                &#xa;
                <mxCell id="bDeUlTLZobzvm5jV-VvE-49" value="Table Storage" style="rounded=0;whiteSpace=wrap;html=1;" parent="bDeUlTLZobzvm5jV-VvE-1" vertex="1">
                    &#xa;
                    <mxGeometry x="700" y="440" width="120" height="60" as="geometry"/>
                    &#xa;
                </mxCell>
                &#xa;
                <mxCell id="bDeUlTLZobzvm5jV-VvE-13" value="PowerBI" style="rounded=0;whiteSpace=wrap;html=1;" parent="bDeUlTLZobzvm5jV-VvE-1" vertex="1">
                    &#xa;
                    <mxGeometry x="860" y="580" width="120" height="60" as="geometry"/>
                    &#xa;
                </mxCell>
                &#xa;
                <mxCell id="bDeUlTLZobzvm5jV-VvE-14" value="Azure DevOps&lt;br&gt;Extension Management Data Storage" style="rounded=0;whiteSpace=wrap;html=1;" parent="bDeUlTLZobzvm5jV-VvE-1" vertex="1">
                    &#xa;
                    <mxGeometry x="1370" y="390" width="120" height="60" as="geometry"/>
                    &#xa;
                </mxCell>
                &#xa;
                <mxCell id="bDeUlTLZobzvm5jV-VvE-15" value="" style="edgeStyle=orthogonalEdgeStyle;rounded=0;orthogonalLoop=1;jettySize=auto;html=1;entryX=0;entryY=0.5;entryDx=0;entryDy=0;" parent="bDeUlTLZobzvm5jV-VvE-1" source="bDeUlTLZobzvm5jV-VvE-17" target="bDeUlTLZobzvm5jV-VvE-20" edge="1">
                    &#xa;
                    <mxGeometry relative="1" as="geometry">
                        &#xa;
                        <mxPoint x="1200" y="330" as="targetPoint"/>
                        &#xa;
                    </mxGeometry>
                    &#xa;
                </mxCell>
                &#xa;
                <mxCell id="bDeUlTLZobzvm5jV-VvE-16" value="VstsRestClient" style="text;html=1;resizable=0;points=[];align=center;verticalAlign=middle;labelBackgroundColor=#ffffff;" parent="bDeUlTLZobzvm5jV-VvE-15" vertex="1" connectable="0">
                    &#xa;
                    <mxGeometry x="-0.3128" y="-2" relative="1" as="geometry">
                        &#xa;
                        <mxPoint x="10.5" y="8" as="offset"/>
                        &#xa;
                    </mxGeometry>
                    &#xa;
                </mxCell>
                &#xa;
                <mxCell id="bDeUlTLZobzvm5jV-VvE-17" value="Rules" style="rounded=0;whiteSpace=wrap;html=1;" parent="bDeUlTLZobzvm5jV-VvE-1" vertex="1">
                    &#xa;
                    <mxGeometry x="1055" y="300" width="120" height="60" as="geometry"/>
                    &#xa;
                </mxCell>
                &#xa;
                <mxCell id="bDeUlTLZobzvm5jV-VvE-18" style="edgeStyle=orthogonalEdgeStyle;rounded=0;orthogonalLoop=1;jettySize=auto;html=1;exitX=1;exitY=0.5;exitDx=0;exitDy=0;curved=1;" parent="bDeUlTLZobzvm5jV-VvE-1" source="bDeUlTLZobzvm5jV-VvE-20" target="bDeUlTLZobzvm5jV-VvE-25" edge="1">
                    &#xa;
                    <mxGeometry relative="1" as="geometry">
                        &#xa;
                        <Array as="points">
                            &#xa;
                            <mxPoint x="1510" y="330"/>
                            &#xa;
                            <mxPoint x="1510" y="470"/>
                            &#xa;
                            <mxPoint x="1430" y="470"/>
                            &#xa;
                        </Array>
                        &#xa;
                    </mxGeometry>
                    &#xa;
                </mxCell>
                &#xa;
                <mxCell id="bDeUlTLZobzvm5jV-VvE-19" value="token&amp;nbsp;&lt;span&gt;🔑&lt;/span&gt;&lt;br&gt;" style="text;html=1;resizable=0;points=[];align=center;verticalAlign=middle;labelBackgroundColor=none;rotation=-90;" parent="bDeUlTLZobzvm5jV-VvE-18" vertex="1" connectable="0">
                    &#xa;
                    <mxGeometry x="-0.2706" y="2" relative="1" as="geometry">
                        &#xa;
                        <mxPoint x="8" y="-22" as="offset"/>
                        &#xa;
                    </mxGeometry>
                    &#xa;
                </mxCell>
                &#xa;
                <mxCell id="bDeUlTLZobzvm5jV-VvE-20" value="Azure DevOps&lt;br&gt;REST API" style="rounded=0;whiteSpace=wrap;html=1;" parent="bDeUlTLZobzvm5jV-VvE-1" vertex="1">
                    &#xa;
                    <mxGeometry x="1370" y="300" width="120" height="60" as="geometry"/>
                    &#xa;
                </mxCell>
                &#xa;
                <mxCell id="bDeUlTLZobzvm5jV-VvE-21" value="" style="edgeStyle=orthogonalEdgeStyle;rounded=0;orthogonalLoop=1;jettySize=auto;html=1;entryX=0.5;entryY=1;entryDx=0;entryDy=0;startArrow=classic;startFill=1;endArrow=none;endFill=0;" parent="bDeUlTLZobzvm5jV-VvE-1" source="bDeUlTLZobzvm5jV-VvE-25" target="bDeUlTLZobzvm5jV-VvE-14" edge="1">
                    &#xa;
                    <mxGeometry relative="1" as="geometry">
                        &#xa;
                        <mxPoint x="1440" y="510" as="targetPoint"/>
                        &#xa;
                    </mxGeometry>
                    &#xa;
                </mxCell>
                &#xa;
                <mxCell id="bDeUlTLZobzvm5jV-VvE-22" value="reports" style="text;html=1;resizable=0;points=[];align=center;verticalAlign=middle;labelBackgroundColor=none;" parent="bDeUlTLZobzvm5jV-VvE-21" vertex="1" connectable="0">
                    &#xa;
                    <mxGeometry x="-0.2889" relative="1" as="geometry">
                        &#xa;
                        <mxPoint x="-20" y="-19" as="offset"/>
                        &#xa;
                    </mxGeometry>
                    &#xa;
                </mxCell>
                &#xa;
                <mxCell id="bDeUlTLZobzvm5jV-VvE-23" style="edgeStyle=orthogonalEdgeStyle;rounded=0;orthogonalLoop=1;jettySize=auto;html=1;entryX=0.5;entryY=0;entryDx=0;entryDy=0;" parent="bDeUlTLZobzvm5jV-VvE-1" source="bDeUlTLZobzvm5jV-VvE-25" target="bDeUlTLZobzvm5jV-VvE-10" edge="1">
                    &#xa;
                    <mxGeometry relative="1" as="geometry">
                        &#xa;
                        <Array as="points">
                            &#xa;
                            <mxPoint x="1560" y="540"/>
                            &#xa;
                            <mxPoint x="1560" y="160"/>
                            &#xa;
                            <mxPoint x="845" y="160"/>
                            &#xa;
                        </Array>
                        &#xa;
                    </mxGeometry>
                    &#xa;
                </mxCell>
                &#xa;
                <mxCell id="bDeUlTLZobzvm5jV-VvE-24" value="rescan &amp;amp; reconcile (w/&amp;nbsp;signed auth header)" style="text;html=1;resizable=0;points=[];align=center;verticalAlign=middle;labelBackgroundColor=#ffffff;" parent="bDeUlTLZobzvm5jV-VvE-23" vertex="1" connectable="0">
                    &#xa;
                    <mxGeometry x="0.1281" y="-2" relative="1" as="geometry">
                        &#xa;
                        <mxPoint x="-69" y="12" as="offset"/>
                        &#xa;
                    </mxGeometry>
                    &#xa;
                </mxCell>
                &#xa;
                <mxCell id="bDeUlTLZobzvm5jV-VvE-25" value="Azure DevOps&lt;br&gt;Compliancy&lt;br&gt;Frontend" style="rounded=0;whiteSpace=wrap;html=1;" parent="bDeUlTLZobzvm5jV-VvE-1" vertex="1">
                    &#xa;
                    <mxGeometry x="1370" y="510" width="120" height="60" as="geometry"/>
                    &#xa;
                </mxCell>
                &#xa;
                <mxCell id="bDeUlTLZobzvm5jV-VvE-26" value="" style="edgeStyle=orthogonalEdgeStyle;rounded=0;orthogonalLoop=1;jettySize=auto;html=1;" parent="bDeUlTLZobzvm5jV-VvE-1" source="bDeUlTLZobzvm5jV-VvE-28" target="bDeUlTLZobzvm5jV-VvE-30" edge="1">
                    &#xa;
                    <mxGeometry relative="1" as="geometry"/>
                    &#xa;
                </mxCell>
                &#xa;
                <mxCell id="bDeUlTLZobzvm5jV-VvE-27" value="build &amp;amp; release completed events" style="text;html=1;resizable=0;points=[];align=center;verticalAlign=middle;labelBackgroundColor=#ffffff;" parent="bDeUlTLZobzvm5jV-VvE-26" vertex="1" connectable="0">
                    &#xa;
                    <mxGeometry x="-0.0214" y="1" relative="1" as="geometry">
                        &#xa;
                        <mxPoint x="1" y="9" as="offset"/>
                        &#xa;
                    </mxGeometry>
                    &#xa;
                </mxCell>
                &#xa;
                <mxCell id="bDeUlTLZobzvm5jV-VvE-28" value="Azure DevOps&lt;br&gt;Service Hooks" style="rounded=0;whiteSpace=wrap;html=1;" parent="bDeUlTLZobzvm5jV-VvE-1" vertex="1">
                    &#xa;
                    <mxGeometry x="1370" y="210" width="120" height="60" as="geometry"/>
                    &#xa;
                </mxCell>
                &#xa;
                <mxCell id="bDeUlTLZobzvm5jV-VvE-29" style="edgeStyle=orthogonalEdgeStyle;rounded=0;orthogonalLoop=1;jettySize=auto;html=1;entryX=0.5;entryY=0;entryDx=0;entryDy=0;exitX=0;exitY=0.5;exitDx=0;exitDy=0;" parent="bDeUlTLZobzvm5jV-VvE-1" source="bDeUlTLZobzvm5jV-VvE-30" target="bDeUlTLZobzvm5jV-VvE-10" edge="1">
                    &#xa;
                    <mxGeometry relative="1" as="geometry"/>
                    &#xa;
                </mxCell>
                &#xa;
                <mxCell id="bDeUlTLZobzvm5jV-VvE-30" value="Storage queue" style="rounded=0;whiteSpace=wrap;html=1;" parent="bDeUlTLZobzvm5jV-VvE-1" vertex="1">
                    &#xa;
                    <mxGeometry x="880" y="210" width="120" height="60" as="geometry"/>
                    &#xa;
                </mxCell>
                &#xa;
                <mxCell id="bDeUlTLZobzvm5jV-VvE-53" style="edgeStyle=orthogonalEdgeStyle;rounded=0;orthogonalLoop=1;jettySize=auto;html=1;exitX=1;exitY=0.5;exitDx=0;exitDy=0;entryX=0;entryY=0.5;entryDx=0;entryDy=0;curved=1;" parent="bDeUlTLZobzvm5jV-VvE-1" source="bDeUlTLZobzvm5jV-VvE-41" target="bDeUlTLZobzvm5jV-VvE-49" edge="1">
                    &#xa;
                    <mxGeometry relative="1" as="geometry">
                        &#xa;
                        <Array as="points">
                            &#xa;
                            <mxPoint x="620" y="340"/>
                            &#xa;
                            <mxPoint x="620" y="470"/>
                            &#xa;
                        </Array>
                        &#xa;
                    </mxGeometry>
                    &#xa;
                </mxCell>
                &#xa;
                <mxCell id="bDeUlTLZobzvm5jV-VvE-41" value="SM9 Function" style="rounded=0;whiteSpace=wrap;html=1;strokeWidth=5;" parent="bDeUlTLZobzvm5jV-VvE-1" vertex="1">
                    &#xa;
                    <mxGeometry x="346" y="310" width="120" height="60" as="geometry"/>
                    &#xa;
                </mxCell>
                &#xa;
                <mxCell id="bDeUlTLZobzvm5jV-VvE-47" style="edgeStyle=orthogonalEdgeStyle;rounded=0;orthogonalLoop=1;jettySize=auto;html=1;exitX=0.5;exitY=1;exitDx=0;exitDy=0;" parent="bDeUlTLZobzvm5jV-VvE-1" source="bDeUlTLZobzvm5jV-VvE-46" target="bDeUlTLZobzvm5jV-VvE-46" edge="1">
                    &#xa;
                    <mxGeometry relative="1" as="geometry"/>
                    &#xa;
                </mxCell>
                &#xa;
                <mxCell id="bDeUlTLZobzvm5jV-VvE-39" value="" style="edgeStyle=orthogonalEdgeStyle;rounded=0;orthogonalLoop=1;jettySize=auto;html=1;entryX=0.5;entryY=0;entryDx=0;entryDy=0;" parent="bDeUlTLZobzvm5jV-VvE-1" source="BpuTOL6fEA9YrTHZpf_7-6" target="BpuTOL6fEA9YrTHZpf_7-5" edge="1">
                    &#xa;
                    <mxGeometry relative="1" as="geometry">
                        &#xa;
                        <mxPoint x="405" y="450.5" as="targetPoint"/>
                        &#xa;
                    </mxGeometry>
                    &#xa;
                </mxCell>
                &#xa;
                <mxCell id="bDeUlTLZobzvm5jV-VvE-40" value="Flurl&lt;br&gt;🔑" style="text;html=1;resizable=0;points=[];align=center;verticalAlign=middle;labelBackgroundColor=none;" parent="bDeUlTLZobzvm5jV-VvE-39" vertex="1" connectable="0">
                    &#xa;
                    <mxGeometry x="0.225" y="3" relative="1" as="geometry">
                        &#xa;
                        <mxPoint x="17" y="-110" as="offset"/>
                        &#xa;
                    </mxGeometry>
                    &#xa;
                </mxCell>
                &#xa;
                <mxCell id="BpuTOL6fEA9YrTHZpf_7-5" value="SM9/CMDB" style="rounded=0;whiteSpace=wrap;html=1;" vertex="1" parent="bDeUlTLZobzvm5jV-VvE-1">
                    &#xa;
                    <mxGeometry x="345" y="614.5" width="120" height="60" as="geometry"/>
                    &#xa;
                </mxCell>
                &#xa;
                <mxCell id="BpuTOL6fEA9YrTHZpf_7-6" value="Express&lt;br&gt;Route" style="strokeWidth=2;html=1;shape=mxgraph.flowchart.direct_data;whiteSpace=wrap;rotation=-90;" vertex="1" parent="bDeUlTLZobzvm5jV-VvE-1">
                    &#xa;
                    <mxGeometry x="321" y="470" width="168" height="60" as="geometry"/>
                    &#xa;
                </mxCell>
                &#xa;
                <mxCell id="BpuTOL6fEA9YrTHZpf_7-7" value="" style="edgeStyle=orthogonalEdgeStyle;rounded=0;orthogonalLoop=1;jettySize=auto;html=1;endArrow=none;endFill=0;" edge="1" parent="bDeUlTLZobzvm5jV-VvE-1" source="bDeUlTLZobzvm5jV-VvE-41">
                    &#xa;
                    <mxGeometry relative="1" as="geometry">
                        &#xa;
                        <mxPoint x="406" y="448" as="targetPoint"/>
                        &#xa;
                        <mxPoint x="405" y="370" as="sourcePoint"/>
                        &#xa;
                    </mxGeometry>
                    &#xa;
                </mxCell>
                &#xa;
                <mxCell id="BpuTOL6fEA9YrTHZpf_7-8" value="Flurl&lt;br&gt;🔑" style="text;html=1;resizable=0;points=[];align=center;verticalAlign=middle;labelBackgroundColor=none;" vertex="1" connectable="0" parent="BpuTOL6fEA9YrTHZpf_7-7">
                    &#xa;
                    <mxGeometry x="0.225" y="3" relative="1" as="geometry">
                        &#xa;
                        <mxPoint x="16" y="-28" as="offset"/>
                        &#xa;
                    </mxGeometry>
                    &#xa;
                </mxCell>
                &#xa;
            </root>
            &#xa;
        </mxGraphModel>
        &#xa;
    </diagram>
</mxfile>